<svg width="49" height="54" viewBox="0 0 49 54" fill="none" xmlns="http://www.w3.org/2000/svg">
<path d="M28.1423 27H1.0001" stroke="white" stroke-width="2" stroke-linecap="round" stroke-linejoin="round"/>
<path d="M11.4184 44.3571V50.1429H44.8243V3.85714H11.4184V9.64286H7.24271V1.92857C7.24271 1.41708 7.46269 0.926543 7.85424 0.564865C8.24579 0.203188 8.77684 0 9.33058 0H46.9121C47.4659 0 47.9969 0.203188 48.3885 0.564865C48.78 0.926543 49 1.41708 49 1.92857V52.0714C49 52.5829 48.78 53.0735 48.3885 53.4351C47.9969 53.7968 47.4659 54 46.9121 54H9.33058C8.77684 54 8.24579 53.7968 7.85424 53.4351C7.46269 53.0735 7.24271 52.5829 7.24271 52.0714V44.3571H11.4184Z" fill="white"/>
<path d="M1.0001 27L9.35156 34.7143" stroke="white" stroke-width="2" stroke-linecap="round" stroke-linejoin="round"/>
<path d="M1.0001 27L9.35156 19.2857" stroke="white" stroke-width="2" stroke-linecap="round" stroke-linejoin="round"/>
<path d="M9.35156 11.745V7.88785" stroke="white" stroke-width="2" stroke-linecap="round" stroke-linejoin="round"/>
<path d="M9.35156 46.2857V42.4286" stroke="white" stroke-width="2" stroke-linecap="round" stroke-linejoin="round"/>
</svg>
