<svg width="51" height="39" viewBox="0 0 51 39" fill="none" xmlns="http://www.w3.org/2000/svg">
<path opacity="0.5" d="M25.0601 0L30.8444 4.48901L15.6646 16.2626L51 16.1943V22.6727L15.6646 22.741L30.8444 34.5134L25.0601 39L0 19.4334L25.0601 0Z" fill="#FAFAFA"/>
<path opacity="0.5" d="M25.0601 0L30.8444 4.48901L15.6646 16.2626L51 16.1943V22.6727L15.6646 22.741L30.8444 34.5134L25.0601 39L0 19.4334L25.0601 0Z" fill="#FAFAFA"/>
<path opacity="0.5" d="M25.0601 0L30.8444 4.48901L15.6646 16.2626L51 16.1943V22.6727L15.6646 22.741L30.8444 34.5134L25.0601 39L0 19.4334L25.0601 0Z" fill="#FAFAFA"/>
<path opacity="0.5" d="M25.0601 0L30.8444 4.48901L15.6646 16.2626L51 16.1943V22.6727L15.6646 22.741L30.8444 34.5134L25.0601 39L0 19.4334L25.0601 0Z" fill="#FAFAFA"/>
</svg>
